<?xml version="1.0" encoding="UTF-8" standalone="no"?>
<!-- Created with Inkscape (http://www.inkscape.org/) -->

<svg
   xmlns:dc="http://purl.org/dc/elements/1.1/"
   xmlns:cc="http://creativecommons.org/ns#"
   xmlns:rdf="http://www.w3.org/1999/02/22-rdf-syntax-ns#"
   xmlns:svg="http://www.w3.org/2000/svg"
   xmlns="http://www.w3.org/2000/svg"
   xmlns:sodipodi="http://sodipodi.sourceforge.net/DTD/sodipodi-0.dtd"
   xmlns:inkscape="http://www.inkscape.org/namespaces/inkscape"
   id="svg2985"
   version="1.1"
   inkscape:version="0.48.4 r9939"
   width="512"
   height="512"
   sodipodi:docname="512.png">
  <metadata
     id="metadata2991">
    <rdf:RDF>
      <cc:Work
         rdf:about="">
        <dc:format>image/svg+xml</dc:format>
        <dc:type
           rdf:resource="http://purl.org/dc/dcmitype/StillImage" />
        <dc:title></dc:title>
      </cc:Work>
    </rdf:RDF>
  </metadata>
  <defs
     id="defs2989" />
  <sodipodi:namedview
     pagecolor="#ffffff"
     bordercolor="#666666"
     borderopacity="1"
     objecttolerance="10"
     gridtolerance="10"
     guidetolerance="10"
     inkscape:pageopacity="0"
     inkscape:pageshadow="2"
     inkscape:window-width="1536"
     inkscape:window-height="801"
     id="namedview2987"
     showgrid="false"
     inkscape:zoom="0.65186406"
     inkscape:cx="432.28531"
     inkscape:cy="173.60892"
     inkscape:window-x="-8"
     inkscape:window-y="-8"
     inkscape:window-maximized="1"
     inkscape:current-layer="svg2985" />
  <path
     style="fill:#fbbe49"
     d="m 234,471.60357 c -8.06275,-2.82704 -20.19258,-8.91781 -53.5,-26.86399 C 128.55861,416.75333 108.87077,404.48479 95.324803,391.6624 79.103581,376.30767 74.330231,365.88935 71.206257,339.02123 69.064321,320.59925 68.764414,185.31006 70.829358,169 74.355999,141.14464 80.628876,128.98265 98.347501,115.64723 114.35717,103.59801 165.83408,73.847158 196.5,58.920437 c 33.95795,-16.529125 50.50031,-21.564909 67.91949,-20.675881 9.0169,0.460198 11.31787,1.003305 21.39724,5.050461 12.2212,4.907167 44.28171,21.870708 83.18327,44.013112 46.52405,26.481051 54.72954,33.314671 66.6318,55.491641 l 7.13179,13.28837 0.73584,50.20593 c 0.99689,68.0169 0.14731,131.75692 -1.88879,141.70593 -6.48542,31.68987 -21.66496,48.35555 -67.61064,74.23005 -33.55911,18.89896 -81.91843,42.8049 -95.67214,47.29456 -15.80179,5.15823 -33.21644,5.97497 -44.32786,2.07896 z m 30.46634,-12.06578 c 4.20325,-0.80421 11.55533,-3.13632 16.33796,-5.18245 18.15334,-7.76646 83.30144,-42.97161 112.88874,-61.00354 9.07446,-5.53041 13.87125,-9.24364 18.7545,-14.518 6.98684,-7.54643 12.92559,-16.47725 14.11642,-21.22853 0.69913,-2.78949 0.62026,-2.86936 -2.16923,-2.19665 -3.31546,0.79955 -33.85767,16.81064 -68.89473,36.11655 -45.9936,25.34313 -68.86046,35.67633 -87.23731,39.4213 -11.91793,2.42872 -25.82913,2.66842 -32.90542,0.56699 -11.3956,-3.38413 -85.47073,-43.73685 -130.61969,-71.15561 C 97.168244,355.76103 90.305744,352 89.487577,352 c -2.150709,0 -1.915019,8.46379 0.375932,13.5 4.267738,9.38178 18.590041,21.42533 43.136491,36.27325 29.45275,17.81568 88.28999,49.21771 101.5,54.17156 6.20143,2.32558 16.37582,4.83647 20.16203,4.97569 1.18912,0.0437 5.60106,-0.57849 9.80431,-1.38271 z m 1.06331,-41.0809 c 13.24136,-3.07088 32.39644,-11.55001 65.97035,-29.20225 63.52029,-33.39723 82.09705,-46.07432 90.71248,-61.90371 7.77514,-14.28549 9.81736,-37.71868 7.94871,-91.20659 -1.27783,-36.57649 -1.84822,-41.79074 -5.37034,-49.09282 -2.77321,-5.74942 -14.9149,-17.84587 -25.30597,-25.21167 -25.97969,-18.41592 -103.44509,-59.19735 -128.14971,-67.464039 -9.50239,-3.179695 -11.62873,-3.55372 -17.33313,-3.048898 -3.57612,0.316475 -9.93122,1.743443 -14.12244,3.171039 -13.10132,4.462517 -81.63028,39.272278 -104.49415,53.078528 -24.34994,14.70361 -37.845754,26.39239 -48.010314,41.58192 l -5.124863,7.6584 -0.712109,46.3416 c -0.919757,59.85462 -0.434397,63.78078 10.477579,84.75497 7.419317,14.26087 9.801787,16.22195 43.484257,35.7932 48.49129,28.17594 92.74925,50.92884 105.5,54.23728 9.20551,2.38856 15.84391,2.5274 24.52965,0.51304 z m -43.51188,-65.59167 c 0.0324,-9.79781 1.82492,-22.72134 3.75484,-27.07182 1.34898,-3.04092 3.04563,-4.88357 5.81599,-6.31645 6.19948,-3.20648 7.91983,-7.75243 7.74923,-20.47695 -0.25593,-19.08789 -4.54792,-30.4881 -20.52181,-54.50916 -16.19653,-24.35586 -30.49754,-42.04545 -39.36391,-48.69107 -2.94871,-2.21016 -5.43497,-5.04437 -6.14567,-7.00577 -0.72407,-1.9983 -1.21576,-9.49679 -1.25,-19.06305 L 172,153.9619 l 2.25,0.53321 c 9.34171,2.21385 15.71965,2.69883 42,3.19374 l 29.75,0.56025 -0.0156,9.12545 c -0.0195,11.39666 -1.7864,19.08346 -5.83774,25.39693 -3.98504,6.21014 -3.9515,9.11089 0.20529,17.75673 5.5939,11.63491 17.07022,22.05872 22.14291,20.11214 1.8233,-0.69966 12.85816,-17.21938 16.1253,-24.14035 2.99378,-6.34188 2.98036,-9.17368 -0.0693,-14.63016 C 274.94535,185.41895 273,176.69639 273,166.98103 c 0,-11.68584 0.62628,-12.44399 9.02862,-10.92979 3.55926,0.64142 19.86939,1.39495 36.24474,1.67451 l 29.77336,0.5083 -0.50188,3.13297 c -0.27604,1.72314 -1.00307,6.73298 -1.61563,11.13298 -1.42997,10.27144 -5.02016,17.09109 -14.92411,28.3487 -16.23594,18.45505 -31.27693,40.64103 -42.66357,62.93025 -7.95019,15.5624 -11.35597,26.12033 -11.29764,35.02267 0.0709,10.82093 2.62566,16.024 10.24495,20.86515 2.08387,1.32405 4.25907,3.62818 4.8338,5.1203 1.30246,3.3815 3.46127,14.70131 4.37926,22.96293 l 0.69447,6.25 -14.84818,0.0127 c -13.11356,0.0112 -39.98939,1.75931 -55.09819,3.58378 l -5.25,0.63397 0.0178,-5.36523 z M 96.272197,153.86894 c 4.525293,-2.27208 26.766693,-14.42056 49.425333,-26.99662 75.50542,-41.907222 85.2423,-45.846396 113.36881,-45.864766 14.10995,-0.0092 20.18701,1.049344 31.48318,5.484035 13.64081,5.355157 65.98418,33.561351 111.43408,60.048311 10.81563,6.30306 20.64389,11.4601 21.84059,11.4601 5.56458,0 0.29492,-13.5531 -9.24387,-23.7744 C 405.83304,124.85244 388.80363,114.04761 340.9168,87.487511 303.67502,66.831622 283.44995,57.605796 268.79216,54.58729 259.10741,52.592893 253.9247,52.589936 244.20784,54.573264 233.42972,56.77321 221.77267,61.918148 189.5,78.71904 135.46103,106.85129 108.77174,123.07863 98.765702,133.88635 90.786541,142.5048 83.240276,158 87.022197,158 c 0.562209,0 4.724709,-1.85898 9.25,-4.13106 z"
     id="path2995"
     inkscape:connector-curvature="0" />
</svg>
