<svg version="1.1" xmlns="http://www.w3.org/2000/svg" viewBox="0 0 375.49511620290593 903.8572311401367" width="375.49511620290593" height="903.8572311401367">
  <!-- svg-source:excalidraw -->
  
  <defs>
    <style>
      @font-face {
        font-family: "Virgil";
        src: url("https://excalidraw.com/Virgil.woff2");
      }
      @font-face {
        font-family: "Cascadia";
        src: url("https://excalidraw.com/Cascadia.woff2");
      }
    </style>
  </defs>
  <rect x="0" y="0" width="375.49511620290593" height="903.8572311401367" fill="#ffffff"></rect><g transform="translate(14.40008544921875 129.31428527832037) rotate(0 125.82855224609375 36.00000762939453)"><path d="M-0.9479944889000804 -1.5061185160928552 C90.38828852990513 -1.4169334258840092, 180.56277109550157 -2.5354580075106306, 250.8188173832403 0.7557329259825541 M-0.6242545367103404 -0.5961004276537546 C59.12068582361029 1.509598842202491, 119.51234552175099 0.37276007347588347, 251.2427024132274 -0.25825560620039345 M253.56500434130427 0.23361671715974808 C252.37336908889304 29.103612191478447, 249.60946094108115 55.70200884987918, 250.6953990384936 73.51606000214815 M251.21662503853437 -0.38370728865265846 C251.93301843260207 25.46061080895815, 252.24982319925704 51.128411419996695, 251.68058914318678 71.62760364636779 M252.6823401797116 71.22706769790993 C193.48981736000286 70.63215599694878, 136.49072884025742 69.27413678139864, 1.1108880451326917 71.28257560113362 M251.75624331872433 71.96331421275661 C170.15339314614366 71.89847416024416, 89.15056799852063 71.64607659380341, -0.540839000459478 72.54465869895748 M-0.1125645712018013 70.39559877663851 C0.6654396567767805 43.366788098705086, -1.2966343845897965 15.482882511103696, 1.0014574453234673 1.3523432090878487 M0.12651926651597023 71.21152925118804 C0.9546125748649951 53.460057527524995, -0.9811842820151929 36.75741011416468, 0.9186160005629063 0.5129631720483303" stroke="#000000" stroke-width="1" fill="none"></path></g><g><g transform="translate(136.45721435546875 204.05715179443382) rotate(0 -0.4456902303826382 45.07341542748269)"><path d="M-0.5698298647999763 0.1425962403416634 C-0.6459575369954109 15.179122014343738, -1.0183979228138922 75.89081944972277, -1.3083424285054206 90.97497553378344 M1.3318707268405707 -0.828144678818062 C1.1777574845124037 13.836925218058749, -2.0166619683336466 74.5270781656634, -2.223251187605783 89.45426500017754" stroke="#000000" stroke-width="1" fill="none"></path></g><g transform="translate(136.45721435546875 204.05715179443382) rotate(0 -0.4456902303826382 45.07341542748269)"><path d="M-11.236778711990125 61.02149456238291 C-7.265163866544331 65.93303549445817, -5.692053242994344 73.15111789674448, -1.7944355918001382 88.81189013446681 M-12.224993849263198 60.88860325386665 C-9.585676689325458 69.03397058563459, -6.624855985148861 78.49230100924547, -1.2499388655554502 90.2133626918029" stroke="#000000" stroke-width="1" fill="none"></path></g><g transform="translate(136.45721435546875 204.05715179443382) rotate(0 -0.4456902303826382 45.07341542748269)"><path d="M9.271439270281748 61.75156139320056 C8.541349918369027 66.39850629037444, 5.417354675907674 73.44937761676044, -1.7944355918001382 88.81189013446681 M8.283224133008675 61.6186700846843 C4.848289582972583 69.53858528173453, 1.7357478813213794 78.78071162326168, -1.2499388655554502 90.2133626918029" stroke="#000000" stroke-width="1" fill="none"></path></g></g><g transform="translate(18.857269287109375 151.37142181396496) rotate(0 120 16)"><text x="0" y="23" font-family="Virgil, Segoe UI Emoji" font-size="20px" fill="#000000" text-anchor="start" style="white-space: pre;" direction="ltr">追加字符图片路径到列表内</text></g><g transform="translate(55.94305419921875 10) rotate(0 82 16)"><text x="0" y="23" font-family="Virgil, Segoe UI Emoji" font-size="20px" fill="#000000" text-anchor="start" style="white-space: pre;" direction="ltr">字符图片OCR识别</text></g><g transform="translate(10 289.3142318725588) rotate(0 122.40005493164062 86.05715942382812)"><path d="M124.36134704761207 1.5833352822810411 C159.82351746372504 24.542394666388347, 193.87321292428481 53.38755979604619, 243.09484198503202 88.014249028638 M123.60939553473145 0.13185702171176672 C153.26848369011472 21.309728738467772, 181.2309752800372 41.73001275275611, 244.7834543595091 87.02217741217464 M246.68685295991605 85.97601765580475 C201.14956254874932 115.96472318301562, 159.28349197736273 145.44284601327695, 122.25948783569038 170.85163545794785 M244.74667662475264 87.72414298262447 C200.49714831400172 116.99050374687573, 158.20502863424804 146.24772859368346, 122.484579176642 172.23575453367084 M122.87428018264472 171.49301529116929 C89.56400854283041 147.10384172040102, 55.070281795068 123.5420255279833, -1.5795455891638994 88.75486546941102 M122.23121056053787 171.87928657140583 C79.74721760247385 143.7341996345689, 35.477854149514044 111.72646282255121, 0.06673979852348566 86.59681452717632 M-0.007889838889241219 86.14958697743714 C37.433907907726244 63.05729078627192, 70.63620322550646 37.688305396446964, 122.24070557765663 0.0989390630275011 M0.7352080354467034 86.22707904782146 C37.38358849107288 63.167607294442135, 74.06832223252394 36.55306129115634, 123.93237152788788 0.5060226758942008" stroke="#000000" stroke-width="1" fill="none"></path></g><g transform="translate(55.828643798828125 343.87139129638683) rotate(0 80 31.5)"><text x="0" y="22.5" font-family="Virgil, Segoe UI Emoji" font-size="20px" fill="#000000" text-anchor="start" style="white-space: pre;" direction="ltr">判断列表数量是否</text><text x="0" y="54" font-family="Virgil, Segoe UI Emoji" font-size="20px" fill="#000000" text-anchor="start" style="white-space: pre;" direction="ltr">达到最大合并数量</text></g><g><g transform="translate(136.1715087890625 460.74275970458996) rotate(0 0.3038074564188378 36.72754397138954)"><path d="M-1.1359752405434846 0.539163725450635 C-0.7018242387721936 12.423554504786928, 1.4817715338120858 60.300630029911794, 1.7435901533812284 72.32859952934086 M0.46849902883172057 -0.22337926402688035 C0.8525606117149196 12.354672368218502, 0.5960956900815169 61.301977311621116, 0.9909450842440128 73.67846720680595" stroke="#000000" stroke-width="1" fill="none"></path></g><g transform="translate(136.1715087890625 460.74275970458996) rotate(0 0.3038074564188378 36.72754397138954)"><path d="M-8.687749619218033 46.22529833054902 C-7.528634016030473 50.55137307690049, -4.484008171363279 58.35599444743658, -0.06320827059447764 72.64187579803169 M-10.57900824360035 45.28024077172192 C-6.601940853401828 51.71211038156319, -3.6695968653109103 59.29317767564672, 0.6433016203716397 74.58082262348384" stroke="#000000" stroke-width="1" fill="none"></path></g><g transform="translate(136.1715087890625 460.74275970458996) rotate(0 0.3038074564188378 36.72754397138954)"><path d="M11.83215868892381 45.994288782497115 C8.310113256186579 50.17883447955251, 6.671610142998483 58.03617769892814, -0.06320827059447764 72.64187579803169 M9.940900064541493 45.04923122367001 C9.099533409897518 51.464798120642975, 7.213693086368797 59.100107693178416, 0.6433016203716397 74.58082262348384" stroke="#000000" stroke-width="1" fill="none"></path></g></g><g transform="translate(159.77154541015625 468.7428207397462) rotate(0 10 16)"><text x="0" y="23" font-family="Virgil, Segoe UI Emoji" font-size="20px" fill="#000000" text-anchor="start" style="white-space: pre;" direction="ltr">是</text></g><g><g transform="translate(258.21073983199904 376.6946090709419) rotate(0 53.290374263562285 -0.7854091817513051)"><path d="M-0.7036278437823057 -0.019647215679287955 C17.016743679903453 -0.11298924591392094, 89.09282602947208 -1.330540680699041, 107.28437637090686 -1.5511711478233223 M1.1278288088925184 -1.0755659492500127 C18.571800706442453 -0.895261181946842, 88.30507388969885 -0.29407967379315736, 106.13118817845361 -0.11840905794872691" stroke="#000000" stroke-width="1" fill="none"></path></g></g><g transform="translate(320.1610107421875 250.66423797607445) rotate(0 10 16)"><text x="0" y="23" font-family="Virgil, Segoe UI Emoji" font-size="20px" fill="#000000" text-anchor="start" style="white-space: pre;" direction="ltr">否</text></g><g><g transform="translate(136.571533203125 57.342781066894545) rotate(0 -0.21359183418564953 34.40935932221823)"><path d="M-1.0408098768442868 0.6664348494261503 C-0.8905072322736183 12.118733001872899, 0.4285604803512495 57.609657443687325, 0.5622855950146914 68.84800944440067 M0.6136262084729971 -0.02929079996421935 C0.6248204199162624 11.0898318595998, -0.7100442999911807 55.638305534254755, -0.45053612751886263 67.23064102722331" stroke="#000000" stroke-width="1" fill="none"></path></g><g transform="translate(136.571533203125 57.342781066894545) rotate(0 -0.21359183418564953 34.40935932221823)"><path d="M-9.411276987917544 38.76609943359706 C-6.150088677770494 45.1969868604332, -4.666050601256446 52.4572359018792, 1.4282052578963338 67.95605640416964 M-10.256280759513201 39.589040739644204 C-7.691984346426455 48.51650234234978, -3.301522639404115 58.0491966751582, -0.800067078638822 67.02209951566532" stroke="#000000" stroke-width="1" fill="none"></path></g><g transform="translate(136.571533203125 57.342781066894545) rotate(0 -0.21359183418564953 34.40935932221823)"><path d="M11.109470861115936 38.90361344098204 C8.794898932130756 45.11915253762243, 4.703330579536868 52.34203822421857, 1.4282052578963338 67.95605640416964 M10.264467089520279 39.72655474702918 C6.134455715643902 48.44332846040103, 3.8293456609359007 57.93115430637539, -0.800067078638822 67.02209951566532" stroke="#000000" stroke-width="1" fill="none"></path></g></g><g><g transform="translate(362.45721435546875 375.57137298583996) rotate(0 0.07784836347610735 -105.47713146321476)"><path d="M0.8920182120054958 0.211111717298627 C0.9377245675772427 -34.98311218333741, 0.4693869244307279 -176.05233932646613, 0.1737057220190763 -211.16537464372814 M-0.09881095603108414 -0.7236585764586925 C-0.1871300525963307 -35.770482581903536, -0.957803809195757 -175.23624221051733, -0.6831442375481129 -209.96977291151882" stroke="#000000" stroke-width="1" fill="none"></path></g></g><g><g transform="translate(360.40008544921875 165.7427902221682) rotate(0 -45.899736983329035 -0.9943537954986104)"><path d="M-0.2756153214722872 -1.0271827887743712 C-15.688399973387519 -1.3285925618062417, -77.45341221777102 -0.9285498888542254, -93.08326802141964 -1.0715249847620725 M1.7805479054152968 1.0479423017799854 C-13.661968756864468 0.3026602224012215, -77.47006639753779 -2.7224614108105505, -93.58002187207342 -3.0366498927772048" stroke="#000000" stroke-width="1" fill="none"></path></g><g transform="translate(360.40008544921875 165.7427902221682) rotate(0 -45.899736983329035 -0.9943537954986104)"><path d="M-66.75488415676718 -10.857810188209637 C-71.60491995190031 -10.234091754424355, -80.07944396079259 -8.030667386380657, -93.67490373633802 -3.0791198096424344 M-65.25606241859113 -13.233686692206188 C-75.83861300183695 -8.043069591408912, -87.07813225275731 -4.801354215027725, -93.05968917708844 -2.0571302731707695" stroke="#000000" stroke-width="1" fill="none"></path></g><g transform="translate(360.40008544921875 165.7427902221682) rotate(0 -45.899736983329035 -0.9943537954986104)"><path d="M-67.48305078679192 9.650475350683127 C-72.27738671041166 5.160006232708304, -80.57026713289268 2.2475705999934004, -93.67490373633802 -3.0791198096424344 M-65.98422904861587 7.274598846686576 C-76.19095591506759 4.3328762526810705, -87.14158805335454 -0.5617045840601573, -93.05968917708844 -2.0571302731707695" stroke="#000000" stroke-width="1" fill="none"></path></g></g><g transform="translate(44.9715576171875 535.2000045776367) rotate(0 101.14285278320312 48.685699462890625)"><path d="M1.0795682576502879 1.6842797236633829 C57.31346385108881 -2.6395792142616363, 116.88923953160482 0.3096580826652996, 202.6575196830686 -0.5370910362471294 M-0.21758884807833612 -0.18702611573027803 C41.70194844929573 -1.2418308977452164, 82.48391490591189 -1.5443718341412085, 203.13683953820424 -0.455316949355765 M201.09339287690818 1.8741652388125658 C202.00906409403672 38.66308505228356, 203.69595475575318 75.57889886294694, 202.78986808471382 97.80032015033066 M202.5170394787565 0.7192830583080649 C202.96538844417142 30.68739158851974, 203.08817684362936 63.239803974627414, 201.97521790955216 97.82171492185444 M200.5334680987992 98.6771278957426 C157.53671554029802 97.03054253721065, 114.16536529913742 95.79649632622284, -1.378734429772117 97.21884567151423 M202.90585396303064 97.08618451002893 C152.3241594888084 97.98413454359988, 104.24233402555274 98.61805106395528, -0.17989523188496537 97.47962257756534 M-0.9160471875220537 98.8576100487262 C1.5960784313655068 75.05996576941959, 0.07882556891204617 52.76482583886785, 1.2500286977738142 0.1352702397853136 M-0.3389115324243903 97.7728172680363 C0.18062015388941 60.93768318577816, -0.6350775458958225 23.248071221134765, 0.731542975641787 0.31097720470279455" stroke="#000000" stroke-width="1" fill="none"></path></g><g transform="translate(79.05722045898438 550.3285751342773) rotate(0 65 31.5)"><text x="0" y="22.5" font-family="Virgil, Segoe UI Emoji" font-size="20px" fill="#000000" text-anchor="start" style="white-space: pre;" direction="ltr">合并字符图片</text><text x="0" y="54" font-family="Virgil, Segoe UI Emoji" font-size="20px" fill="#000000" text-anchor="start" style="white-space: pre;" direction="ltr">并执行ocr识别</text></g><g><g transform="translate(142.343017578125 634.6285934448242) rotate(0 -0.13797408076931106 38.481356353042656)"><path d="M0.37297881133854394 -0.7397978771477938 C0.06950248964130884 12.154665268585084, -1.203081078454852 63.273200870677826, -1.1833278011530637 76.38363729827105 M-0.8903460420481861 1.486204292010516 C-0.9011687214486301 14.634634746145457, 0.7616824864037337 65.25524015946314, 0.9073796396143736 77.70251058323309" stroke="#000000" stroke-width="1" fill="none"></path></g><g transform="translate(142.343017578125 634.6285934448242) rotate(0 -0.13797408076931106 38.481356353042656)"><path d="M-11.241578190724159 47.78675114563066 C-7.076608414921781 60.41183474809906, -0.6565764991846779 68.14851219867873, -0.6727296567521988 76.24666567241773 M-10.852222966166938 50.35279574724245 C-5.17166733609015 59.51600695583231, -3.190324748070706 68.02058004997185, 1.1582271124236287 78.36087055878714" stroke="#000000" stroke-width="1" fill="none"></path></g><g transform="translate(142.343017578125 634.6285934448242) rotate(0 -0.13797408076931106 38.481356353042656)"><path d="M9.274037049673549 47.30765439778017 C6.190453517979316 60.16568599044534, 5.365857292318132 68.07154568300308, -0.6727296567521988 76.24666567241773 M9.66339227423077 49.87369899939196 C8.259259011855585 59.329757707616714, 3.152138509614211 67.99986615490107, 1.1582271124236287 78.36087055878714" stroke="#000000" stroke-width="1" fill="none"></path></g></g><g transform="translate(10.189361572265625 715.3214950561523) rotate(0 142.97146606445312 30.171417236328125)"><path d="M-0.9004387473497449 1.1662092702986655 C76.19199434214207 -0.41630503904854643, 152.7400714015765 -1.4092422558786706, 286.8491341692138 -1.4408449303909279 M0.17774316294641773 0.09987017769364467 C105.55613156675972 0.7661487859692423, 210.73507315527766 0.20841660679887786, 285.4990044519277 0.0864189299472289 M283.94824165292084 -1.7039662916213274 C285.72132253992095 21.873805475512192, 284.1965422068788 45.002936419281454, 286.39532399363816 61.7505369465798 M285.80663640704006 0.8692097971215844 C285.1342409122577 15.994354181722615, 285.5089114475837 31.423363045388587, 286.1606589993462 60.23659747932105 M285.1539396633272 59.30914208304682 C205.94036673091188 61.99908500652175, 123.87429926721612 61.88163277356252, -0.14888847439053765 59.20143679572271 M285.3925872753076 60.21040987321846 C216.24708193652222 61.597086991647, 146.1872968776624 61.19314959701323, 0.011380723593427854 60.31988620281893 M1.891632141545415 59.31793901138006 C-0.3545390481318743 40.926566641886524, 1.8973949437771527 21.064458722466227, 1.8993262071162462 -1.6246562916785479 M0.3136084219440818 60.534970135428 C0.12631695857358938 40.651863960730296, -1.2379250884978674 22.569021190878793, 0.36690889205783606 -0.9408714761957526" stroke="#000000" stroke-width="1" fill="none"></path></g><g transform="translate(22.16082763671875 727.4357833862305) rotate(0 131 16)"><text x="0" y="23" font-family="Virgil, Segoe UI Emoji" font-size="20px" fill="#000000" text-anchor="start" style="white-space: pre;" direction="ltr">更新[图片名=&gt;字符]映射关系</text></g><g transform="translate(46.343017578125 832.8286056518555) rotate(0 101.82855224609375 30.514312744140625)"><path d="M-0.041230984466227 1.300086412592419 C47.668732219454625 1.5191514282769385, 98.25472231141381 2.758701661182662, 202.80939693212704 -1.5168207509462723 M-0.19777056771541515 0.037578131459635386 C70.80149955919396 -0.7101008782013891, 143.58324702320823 -1.2247414421611216, 203.0236231282474 0.7990321793985591 M204.3890159148723 -1.9037155825644732 C205.7991496204154 11.464756672429548, 203.4354010103957 28.02100167827806, 205.653177799657 61.48325034789741 M203.9353012284264 0.8346549877896905 C203.59551972756236 21.8866675789451, 203.7156173945412 43.08107614330608, 203.12423802819103 61.03154191467911 M204.60160077855227 61.43810139527791 C127.07246964420581 59.9183858941011, 50.506452660159354 61.17175635140584, 0.9499007788023205 61.305881084787615 M203.58930361073703 61.59475159967543 C139.441091002139 61.19845738378842, 75.23756936447403 61.62269698670805, -0.6204311852758571 60.69472517644352 M-1.563372252508998 59.48662462644279 C-2.12762792751458 39.6745813512491, -1.094667095395592 14.5555598503474, -1.0036132913082838 -1.417184742167592 M-0.5264634052291512 60.11359167192131 C0.3022625764100332 45.88344059565413, -0.1685420851023417 30.184662543373758, -0.6317179659381509 0.3420661995187402" stroke="#000000" stroke-width="1" fill="none"></path></g><g transform="translate(68.17156982421875 847.3429183959961) rotate(0 80 16)"><text x="0" y="23" font-family="Virgil, Segoe UI Emoji" font-size="20px" fill="#000000" text-anchor="start" style="white-space: pre;" direction="ltr">清除字符图片列表</text></g><g><g transform="translate(145.08587646484375 773.8571090698242) rotate(0 1.145523716332434 30.994562368821335)"><path d="M1.0699181009083987 0.4166489493101835 C1.3556058773150048 10.506402342642346, 1.88607190536956 51.2524364442875, 2.1185610581189396 61.39142727963626 M0.17248637454584248 -0.41021429764106876 C0.2701401654568812 9.721025239160905, 0.9126468902515867 52.00353168460851, 1.2027674742229282 62.399339035283774" stroke="#000000" stroke-width="1" fill="none"></path></g><g transform="translate(145.08587646484375 773.8571090698242) rotate(0 1.145523716332434 30.994562368821335)"><path d="M-8.937638440403667 34.52661813438505 C-7.49860311743176 44.3425419831315, -4.117714543938512 51.402741576128435, 2.3589703884162008 61.470210058744996 M-9.981339540566829 34.030812158404 C-8.406356569667699 39.388884874121004, -5.407811347990369 45.461536058383025, 0.45005950016900886 62.4327234785445" stroke="#000000" stroke-width="1" fill="none"></path></g><g transform="translate(145.08587646484375 773.8571090698242) rotate(0 1.145523716332434 30.994562368821335)"><path d="M11.57928078739696 34.10706148058903 C6.1747433725416965 44.24592111456423, 2.7090771850977298 51.44612796565077, 2.3589703884162008 61.470210058744996 M10.535579687233799 33.611255504607975 C7.98834030284948 38.88876136366384, 6.867936008678908 45.045642185759704, 0.45005950016900886 62.4327234785445" stroke="#000000" stroke-width="1" fill="none"></path></g></g><g><g transform="translate(250.0001220703125 861.628532409668) rotate(0 56.73361042782665 -1.543359689600777)"><path d="M-0.23532274849712853 -0.06439270488917836 C18.784525582504767 -0.7329490346834064, 95.91870447999486 -2.6527567794546485, 115.28522677645086 -3.022326674312353 M-1.8180059207975865 -1.1438028202950954 C16.915511602995295 -1.7067539364472033, 94.6437560021753 -1.0307296075299384, 114.17954601742325 -1.5582456956058741" stroke="#000000" stroke-width="1" fill="none"></path></g></g><g><g transform="translate(361.08587646484375 375.45711517333984) rotate(0 1.5060651503502527 241.1836118491367)"><path d="M-0.2885509360581636 0.9577655363827942 C0.33701228449740483 81.31469424416623, 2.768873738249067 402.07776537040877, 3.300681236758737 481.9522352006287 M1.760821093171835 0.41498849764466295 C2.3642421967039358 80.4597863656034, 2.8062059868623055 400.1827381800364, 2.930244308411984 480.2912669745088" stroke="#000000" stroke-width="1" fill="none"></path></g></g></svg>